<svg xmlns="http://www.w3.org/2000/svg" width="12" height="12.187" viewBox="0 0 12 12.187" id="man">
  <defs>
    <style>
      .cls-1 {
        fill: #fff;
        fill-rule: evenodd;
      }
    </style>
  </defs>
  <path id="icon1" class="cls-1" d="M921.536,309.882h0a3.85,3.85,0,0,0,.214-1.258,3.75,3.75,0,1,0-7.5,0,3.85,3.85,0,0,0,.214,1.258h0A4.568,4.568,0,0,0,912,313.949v2.282a0.756,0.756,0,0,0,.751.762h10.5a0.756,0.756,0,0,0,.751-0.762v-2.282A4.568,4.568,0,0,0,921.536,309.882ZM918,306.341a2.283,2.283,0,1,1-2.25,2.283A2.27,2.27,0,0,1,918,306.341Zm4.5,9.131h-9v-1.523a3.046,3.046,0,0,1,1.739-2.757,3.7,3.7,0,0,0,5.522,0,3.046,3.046,0,0,1,1.739,2.757v1.523Z" transform="translate(-912 -304.813)"/>
</svg>
