<?xml version="1.0" encoding="utf-8"?>
<!-- Generator: Adobe Illustrator 24.0.2, SVG Export Plug-In . SVG Version: 6.00 Build 0)  -->
<svg version="1.1" id="svg-logo" xmlns="http://www.w3.org/2000/svg" xmlns:xlink="http://www.w3.org/1999/xlink" x="0px" y="0px"
	 viewBox="0 0 230.9 176.3" style="enable-background:new 0 0 230.9 176.3;" xml:space="preserve">
<path d="M0,0h17.6v101.4L99,0h22.4L51.8,85.9l69.6,90.4h-22L40.6,99.9l-22.9,28.2v48.2H0V0z"/>
<path d="M121.4,0h40.5c8.3,0,15.6,0.6,21.9,1.7c6.2,1.1,12,3.5,17.4,7.1c6.2,4.2,11.2,9.6,14.8,16.4s5.5,13.9,5.5,21.5
	c0,14.3-6.4,26.1-19.1,35.3c9,3.7,16,9.5,21,17.3s7.5,16.8,7.5,27.1c0,8-1.9,15.7-5.7,23c-3.8,7.3-9,13.1-15.6,17.3
	c-4.7,3-9.6,5.1-14.5,6.5c-5,1.4-9.8,2.2-14.6,2.5c-4.8,0.3-10.9,0.5-18.3,0.6h-40.8V0z M157.5,75.4c7.5,0,13.8-0.3,18.8-0.9
	c5-0.6,9.7-2.1,14-4.3c4.1-2.2,7.5-5.6,10.1-10.2c2.6-4.6,3.9-9.4,3.9-14.4c0-4.7-1.3-9.3-3.9-13.8c-2.6-4.5-5.9-8-9.9-10.5
	c-3.8-2.3-8.3-3.7-13.3-4.4c-5-0.6-11.1-0.9-18.3-0.9h-20.2v59.4L157.5,75.4L157.5,75.4z M160,160.3c8.2,0,15.2-0.3,20.9-0.9
	s10.9-2.1,15.5-4.4c4.9-2.6,8.9-6.6,12.1-11.9s4.7-10.8,4.7-16.5c0-7.5-1.9-14.1-5.8-19.7c-3.8-5.7-9.1-9.7-15.7-12
	c-7.2-2.4-18.8-3.6-34.8-3.6h-18.2v69H160z"/>
</svg>
