<svg xmlns="http://www.w3.org/2000/svg" width="12.282" height="10.937" viewBox="0 0 12.282 10.937" id="home">
  <defs>
    <style>
      .cls-1 {
        fill: #fff;
        fill-rule: evenodd;
      }
    </style>
  </defs>
  <path id="icon" class="cls-1" d="M918.8,251.781l4.635,3.271a0.343,0.343,0,0,1,.144.279v4.236a0.342,0.342,0,0,1-.341.342h-8.876a0.342,0.342,0,0,1-.341-0.342v-4.236a0.343,0.343,0,0,1,.144-0.279l4.635-3.271m0.125-1.431h-0.25a0.682,0.682,0,0,0-.393.125l-5.338,3.768a0.684,0.684,0,0,0-.289.558v5.791a0.682,0.682,0,0,0,.683.682h10.924a0.682,0.682,0,0,0,.683-0.682V254.8a0.684,0.684,0,0,0-.289-0.558l-5.338-3.768a0.682,0.682,0,0,0-.393-0.125h0Zm-1.149,5.463h-2.048a0.341,0.341,0,0,0-.342.341v5.12h2.731v-5.12A0.341,0.341,0,0,0,917.777,255.813Zm4.1,1.365h-2.048a0.342,0.342,0,0,1-.341-0.342v-0.682a0.341,0.341,0,0,1,.341-0.341h2.048a0.341,0.341,0,0,1,.342.341v0.682A0.342,0.342,0,0,1,921.873,257.178Z" transform="translate(-912.656 -250.344)"/>
</svg>
